<?xml version="1.0" encoding="UTF-8"?>
<!-- Generator: Blender, SVG Export for Grease Pencil - v1.0 -->
<!DOCTYPE svg PUBLIC "-//W3C//DTD SVG 1.1//EN" "http://www.w3.org/Graphics/SVG/1.1/DTD/svg11.dtd">
<svg version="1.0" x="0px" y="0px" xmlns="http://www.w3.org/2000/svg" width="434px" height="244px" viewBox="0 0 434 244">
	<g id="blender_frame_1">
		<g id="blender_object_GPencil">
			<!--Layer: GP_Layer-->
			<g id="GP_Layer">
				<polygon fill="#000000" stroke="none" fill-opacity="1" points="10.000000,10.000000 113.541565,10.000000 217.083313,10.000000 320.624939,10.000000 424.166565,10.000000 424.166565,66.250000 424.166565,122.500000 424.166565,178.749939 368.166565,210.999939 320.624939,234.999939 217.083313,234.999939 113.541565,234.999939 10.000000,234.999939 10.000000,178.749939 10.000000,122.500000 10.000000,66.250000" />
				<polygon stroke="#FEFEFE" stroke-opacity="0.360000074" fill="none" stroke-linecap="round" stroke-width="20" points="10.000000,10.000000 113.541565,10.000000 217.083313,10.000000 320.624939,10.000000 424.166565,10.000000 424.166565,66.250000 424.166565,122.500000 424.166565,178.749939 368.166565,210.999939 320.624939,234.999939 217.083313,234.999939 113.541565,234.999939 10.000000,234.999939 10.000000,178.749939 10.000000,122.500000 10.000000,66.250000" />
			</g>
		</g>
	</g>
</svg>
